REM DIRINDEX 1\2\6,1\2\7,1\2\8,1\2\9,1\3\10,1\3\11,1\4\12,1\4\13,1\4\14,1\5\15,1\5\16,1\5\17
REM DIRNAME folder01,folder02,folder03,folder04,folder05,folder06,folder07,folder08,folder09,folder10,folder11,folder12,folder13,folder14,folder15,folder16,folder17
TITLE ""
FILE "1900_3_068 sec12_1116_1132.mp3" MP3
  TRACK 01 AUDIO
    TITLE "0:"
    INDEX 01 00:00:00
  TRACK 02 AUDIO
    TITLE "17:cjc020_8210"
    INDEX 01 00:00:11
  TRACK 03 AUDIO
    TITLE "0:"
    INDEX 01 00:02:22
  TRACK 04 AUDIO
    TITLE "16:cjc020_8211"
    INDEX 01 00:02:32
  TRACK 05 AUDIO
    TITLE "0:"
    INDEX 01 00:03:47
  TRACK 06 AUDIO
    TITLE "17:cjc020_8212"
    INDEX 01 00:04:31
  TRACK 07 AUDIO
    TITLE "0:"
    INDEX 01 00:05:46
  TRACK 08 AUDIO
    TITLE "16:cjc020_8213"
    INDEX 01 00:05:50
  TRACK 09 AUDIO
    TITLE "0:"
    INDEX 01 00:06:65
  TRACK 10 AUDIO
    TITLE "17:cjc020_8214"
    INDEX 01 00:07:54
  TRACK 11 AUDIO
    TITLE "0:"
    INDEX 01 00:08:58
  TRACK 12 AUDIO
    TITLE "16:cjc020_8215"
    INDEX 01 00:08:68
  TRACK 13 AUDIO
    TITLE "0:"
    INDEX 01 00:09:63
  TRACK 14 AUDIO
    TITLE "17:cjc020_8216"
    INDEX 01 00:10:45
  TRACK 15 AUDIO
    TITLE "0:"
    INDEX 01 00:11:39
  TRACK 16 AUDIO
    TITLE "16:cjc020_8217"
    INDEX 01 00:11:48
  TRACK 17 AUDIO
    TITLE "0:"
    INDEX 01 00:12:60
  TRACK 18 AUDIO
    TITLE "17:cjc020_8218"
    INDEX 01 00:13:39
  TRACK 19 AUDIO
    TITLE "0:"
    INDEX 01 00:14:37
  TRACK 20 AUDIO
    TITLE "16:cjc020_8219"
    INDEX 01 00:14:45
  TRACK 21 AUDIO
    TITLE "0:"
    INDEX 01 00:15:64
  TRACK 22 AUDIO
    TITLE "17:cjc020_8220"
    INDEX 01 00:16:51
  TRACK 23 AUDIO
    TITLE "0:"
    INDEX 01 00:18:13
  TRACK 24 AUDIO
    TITLE "16:cjc020_8221"
    INDEX 01 00:18:19
  TRACK 25 AUDIO
    TITLE "0:"
    INDEX 01 00:19:22
  TRACK 26 AUDIO
    TITLE "17:cjc020_8222"
    INDEX 01 00:20:06
  TRACK 27 AUDIO
    TITLE "0:"
    INDEX 01 00:21:11
  TRACK 28 AUDIO
    TITLE "16:cjc020_8223"
    INDEX 01 00:21:17
  TRACK 29 AUDIO
    TITLE "0:"
    INDEX 01 00:22:07
  TRACK 30 AUDIO
    TITLE "17:cjc020_8224"
    INDEX 01 00:22:70
  TRACK 31 AUDIO
    TITLE "0:"
    INDEX 01 00:24:16
  TRACK 32 AUDIO
    TITLE "16:cjc020_8225"
    INDEX 01 00:24:25
  TRACK 33 AUDIO
    TITLE "0:"
    INDEX 01 00:25:31
  TRACK 34 AUDIO
    TITLE "17:cjc020_8226"
    INDEX 01 00:26:13
  TRACK 35 AUDIO
    TITLE "0:"
    INDEX 01 00:27:39
  TRACK 36 AUDIO
    TITLE "16:cjc020_8227"
    INDEX 01 00:27:45
  TRACK 37 AUDIO
    TITLE "0:"
    INDEX 01 00:28:70
  TRACK 38 AUDIO
    TITLE "17:cjc020_8228"
    INDEX 01 00:29:52
  TRACK 39 AUDIO
    TITLE "0:"
    INDEX 01 00:30:73
  TRACK 40 AUDIO
    TITLE "16:cjc020_8229"
    INDEX 01 00:31:02
  TRACK 41 AUDIO
    TITLE "0:"
    INDEX 01 00:32:25
  TRACK 42 AUDIO
    TITLE "17:cjc020_8230"
    INDEX 01 00:33:07
  TRACK 43 AUDIO
    TITLE "0:"
    INDEX 01 00:34:42
  TRACK 44 AUDIO
    TITLE "16:cjc020_8231"
    INDEX 01 00:34:43
  TRACK 45 AUDIO
    TITLE "0:"
    INDEX 01 00:35:70
  TRACK 46 AUDIO
    TITLE "17:cjc020_8232"
    INDEX 01 00:36:54
  TRACK 47 AUDIO
    TITLE "0:"
    INDEX 01 00:38:10
  TRACK 48 AUDIO
    TITLE "16:cjc020_8233"
    INDEX 01 00:38:16
  TRACK 49 AUDIO
    TITLE "0:"
    INDEX 01 00:39:21
  TRACK 50 AUDIO
    TITLE "17:cjc020_8234"
    INDEX 01 00:40:09
  TRACK 51 AUDIO
    TITLE "0:"
    INDEX 01 00:41:36
  TRACK 52 AUDIO
    TITLE "16:cjc020_8235"
    INDEX 01 00:41:44
  TRACK 53 AUDIO
    TITLE "0:"
    INDEX 01 00:42:33
  TRACK 54 AUDIO
    TITLE "17:cjc020_8236"
    INDEX 01 00:43:35
  TRACK 55 AUDIO
    TITLE "0:"
    INDEX 01 00:45:00
  TRACK 56 AUDIO
    TITLE "16:cjc020_8237"
    INDEX 01 00:45:10
  TRACK 57 AUDIO
    TITLE "0:"
    INDEX 01 00:46:19
  TRACK 58 AUDIO
    TITLE "17:cjc020_8238"
    INDEX 01 00:46:74
  TRACK 59 AUDIO
    TITLE "0:"
    INDEX 01 00:49:69
  TRACK 60 AUDIO
    TITLE "16:cjc020_8239"
    INDEX 01 00:50:50
  TRACK 61 AUDIO
    TITLE "0:"
    INDEX 01 00:51:48
  TRACK 62 AUDIO
    TITLE "17:cjc020_8240"
    INDEX 01 00:52:37
  TRACK 63 AUDIO
    TITLE "0:"
    INDEX 01 00:53:43
  TRACK 64 AUDIO
    TITLE "16:cjc020_8241"
    INDEX 01 00:53:47
  TRACK 65 AUDIO
    TITLE "0:"
    INDEX 01 00:54:60
  TRACK 66 AUDIO
    TITLE "17:cjc020_8242"
    INDEX 01 00:55:44
  TRACK 67 AUDIO
    TITLE "0:"
    INDEX 01 00:56:69
  TRACK 68 AUDIO
    TITLE "16:cjc020_8243"
    INDEX 01 00:57:03
  TRACK 69 AUDIO
    TITLE "0:"
    INDEX 01 00:58:22
